<?xml version="1.0" encoding="UTF-8" standalone="no"?>
<!DOCTYPE svg PUBLIC "-//W3C//DTD SVG 1.1//EN"
 "http://www.w3.org/Graphics/SVG/1.1/DTD/svg11.dtd">
<!-- Generated by graphviz version 2.43.0 (0)
 -->
<!-- Title: ER Pages: 1 -->
<svg width="1531pt" height="1828pt"
 viewBox="0.00 0.00 1531.00 1828.00" xmlns="http://www.w3.org/2000/svg" xmlns:xlink="http://www.w3.org/1999/xlink">
<g id="graph0" class="graph" transform="scale(1 1) rotate(0) translate(36 1792)">
<title>ER</title>
<polygon fill="#f5f7fa" stroke="transparent" points="-36,36 -36,-1792 1495,-1792 1495,36 -36,36"/>
<text text-anchor="start" x="527.5" y="-1729.3" font-family="Helvetica,sans-Serif" font-weight="bold" font-size="24.00" fill="#1a237e">Laundry Buddy — ER Diagram</text>
<text text-anchor="start" x="487.5" y="-1705.9" font-family="Helvetica,sans-Serif" font-size="12.00" fill="#000000">🔑 = Primary Key &#160;&#160;| &#160;&#160;🔗 = Foreign Key &#160;&#160;| &#160;&#160;* = Required &#160;&#160;| &#160;&#160;Crow&#39;s Foot Notation</text>
<!-- Users -->
<g id="node1" class="node">
<title>Users</title>
<polygon fill="#4a90d9" stroke="transparent" points="0,-884.5 0,-913.5 266,-913.5 266,-884.5 0,-884.5"/>
<polygon fill="none" stroke="white" points="0,-884.5 0,-913.5 266,-913.5 266,-884.5 0,-884.5"/>
<text text-anchor="start" x="110.5" y="-896.3" font-family="Helvetica,sans-Serif" font-weight="bold" font-size="14.00" fill="white">Users</text>
<polygon fill="#edf2fa" stroke="transparent" points="0,-855.5 0,-884.5 32,-884.5 32,-855.5 0,-855.5"/>
<polygon fill="none" stroke="black" points="0,-855.5 0,-884.5 32,-884.5 32,-855.5 0,-855.5"/>
<text text-anchor="start" x="7" y="-866.3" font-family="Helvetica,sans-Serif" font-size="14.00">🔑</text>
<polygon fill="#edf2fa" stroke="transparent" points="32,-855.5 32,-884.5 266,-884.5 266,-855.5 32,-855.5"/>
<polygon fill="none" stroke="black" points="32,-855.5 32,-884.5 266,-884.5 266,-855.5 32,-855.5"/>
<text text-anchor="start" x="39" y="-866.3" font-family="Helvetica,sans-Serif" font-size="14.00"> _id &#160;(ObjectId)</text>
<polygon fill="none" stroke="black" points="0,-826.5 0,-855.5 32,-855.5 32,-826.5 0,-826.5"/>
<text text-anchor="start" x="13.5" y="-837.3" font-family="Helvetica,sans-Serif" font-size="14.00"> </text>
<polygon fill="none" stroke="black" points="32,-826.5 32,-855.5 266,-855.5 266,-826.5 32,-826.5"/>
<text text-anchor="start" x="39" y="-837.3" font-family="Helvetica,sans-Serif" font-size="14.00"> name &#160;(String) *</text>
<polygon fill="none" stroke="black" points="0,-797.5 0,-826.5 32,-826.5 32,-797.5 0,-797.5"/>
<text text-anchor="start" x="13.5" y="-808.3" font-family="Helvetica,sans-Serif" font-size="14.00"> </text>
<polygon fill="none" stroke="black" points="32,-797.5 32,-826.5 266,-826.5 266,-797.5 32,-797.5"/>
<text text-anchor="start" x="39" y="-808.3" font-family="Helvetica,sans-Serif" font-size="14.00"> email &#160;(String) * unique</text>
<polygon fill="none" stroke="black" points="0,-768.5 0,-797.5 32,-797.5 32,-768.5 0,-768.5"/>
<text text-anchor="start" x="13.5" y="-779.3" font-family="Helvetica,sans-Serif" font-size="14.00"> </text>
<polygon fill="none" stroke="black" points="32,-768.5 32,-797.5 266,-797.5 266,-768.5 32,-768.5"/>
<text text-anchor="start" x="39" y="-779.3" font-family="Helvetica,sans-Serif" font-size="14.00"> password &#160;(String) *</text>
<polygon fill="none" stroke="black" points="0,-739.5 0,-768.5 32,-768.5 32,-739.5 0,-739.5"/>
<text text-anchor="start" x="13.5" y="-750.3" font-family="Helvetica,sans-Serif" font-size="14.00"> </text>
<polygon fill="none" stroke="black" points="32,-739.5 32,-768.5 266,-768.5 266,-739.5 32,-739.5"/>
<text text-anchor="start" x="39" y="-750.3" font-family="Helvetica,sans-Serif" font-size="14.00"> phone &#160;(String)</text>
<polygon fill="none" stroke="black" points="0,-710.5 0,-739.5 32,-739.5 32,-710.5 0,-710.5"/>
<text text-anchor="start" x="13.5" y="-721.3" font-family="Helvetica,sans-Serif" font-size="14.00"> </text>
<polygon fill="none" stroke="black" points="32,-710.5 32,-739.5 266,-739.5 266,-710.5 32,-710.5"/>
<text text-anchor="start" x="39" y="-721.3" font-family="Helvetica,sans-Serif" font-size="14.00"> address &#160;(String)</text>
<polygon fill="none" stroke="black" points="0,-681.5 0,-710.5 32,-710.5 32,-681.5 0,-681.5"/>
<text text-anchor="start" x="13.5" y="-692.3" font-family="Helvetica,sans-Serif" font-size="14.00"> </text>
<polygon fill="none" stroke="black" points="32,-681.5 32,-710.5 266,-710.5 266,-681.5 32,-681.5"/>
<text text-anchor="start" x="39" y="-692.3" font-family="Helvetica,sans-Serif" font-size="14.00"> hostelRoom &#160;(String)</text>
<polygon fill="none" stroke="black" points="0,-652.5 0,-681.5 32,-681.5 32,-652.5 0,-652.5"/>
<text text-anchor="start" x="13.5" y="-663.3" font-family="Helvetica,sans-Serif" font-size="14.00"> </text>
<polygon fill="none" stroke="black" points="32,-652.5 32,-681.5 266,-681.5 266,-652.5 32,-652.5"/>
<text text-anchor="start" x="39" y="-663.3" font-family="Helvetica,sans-Serif" font-size="14.00"> googleId &#160;(String)</text>
<polygon fill="none" stroke="black" points="0,-623.5 0,-652.5 32,-652.5 32,-623.5 0,-623.5"/>
<text text-anchor="start" x="13.5" y="-634.3" font-family="Helvetica,sans-Serif" font-size="14.00"> </text>
<polygon fill="none" stroke="black" points="32,-623.5 32,-652.5 266,-652.5 266,-623.5 32,-623.5"/>
<text text-anchor="start" x="39" y="-634.3" font-family="Helvetica,sans-Serif" font-size="14.00"> profilePhoto &#160;(String)</text>
<polygon fill="none" stroke="black" points="0,-594.5 0,-623.5 32,-623.5 32,-594.5 0,-594.5"/>
<text text-anchor="start" x="13.5" y="-605.3" font-family="Helvetica,sans-Serif" font-size="14.00"> </text>
<polygon fill="none" stroke="black" points="32,-594.5 32,-623.5 266,-623.5 266,-594.5 32,-594.5"/>
<text text-anchor="start" x="39" y="-605.3" font-family="Helvetica,sans-Serif" font-size="14.00"> isAdmin &#160;(Boolean)</text>
<polygon fill="none" stroke="black" points="0,-565.5 0,-594.5 32,-594.5 32,-565.5 0,-565.5"/>
<text text-anchor="start" x="13.5" y="-576.3" font-family="Helvetica,sans-Serif" font-size="14.00"> </text>
<polygon fill="none" stroke="black" points="32,-565.5 32,-594.5 266,-594.5 266,-565.5 32,-565.5"/>
<text text-anchor="start" x="39" y="-576.3" font-family="Helvetica,sans-Serif" font-size="14.00"> failedLoginAttempts &#160;(Number)</text>
<polygon fill="none" stroke="black" points="0,-536.5 0,-565.5 32,-565.5 32,-536.5 0,-536.5"/>
<text text-anchor="start" x="13.5" y="-547.3" font-family="Helvetica,sans-Serif" font-size="14.00"> </text>
<polygon fill="none" stroke="black" points="32,-536.5 32,-565.5 266,-565.5 266,-536.5 32,-536.5"/>
<text text-anchor="start" x="39" y="-547.3" font-family="Helvetica,sans-Serif" font-size="14.00"> accountLockedUntil &#160;(Date)</text>
<polygon fill="none" stroke="black" points="0,-507.5 0,-536.5 32,-536.5 32,-507.5 0,-507.5"/>
<text text-anchor="start" x="13.5" y="-518.3" font-family="Helvetica,sans-Serif" font-size="14.00"> </text>
<polygon fill="none" stroke="black" points="32,-507.5 32,-536.5 266,-536.5 266,-507.5 32,-507.5"/>
<text text-anchor="start" x="39" y="-518.3" font-family="Helvetica,sans-Serif" font-size="14.00"> lastLoginAt / lastLoginIP</text>
<polygon fill="none" stroke="black" points="0,-478.5 0,-507.5 32,-507.5 32,-478.5 0,-478.5"/>
<text text-anchor="start" x="13.5" y="-489.3" font-family="Helvetica,sans-Serif" font-size="14.00"> </text>
<polygon fill="none" stroke="black" points="32,-478.5 32,-507.5 266,-507.5 266,-478.5 32,-478.5"/>
<text text-anchor="start" x="39" y="-489.3" font-family="Helvetica,sans-Serif" font-size="14.00"> passwordChangedAt &#160;(Date)</text>
<polygon fill="none" stroke="black" points="0,-449.5 0,-478.5 32,-478.5 32,-449.5 0,-449.5"/>
<text text-anchor="start" x="13.5" y="-460.3" font-family="Helvetica,sans-Serif" font-size="14.00"> </text>
<polygon fill="none" stroke="black" points="32,-449.5 32,-478.5 266,-478.5 266,-449.5 32,-449.5"/>
<text text-anchor="start" x="39" y="-460.3" font-family="Helvetica,sans-Serif" font-size="14.00"> refreshTokens[] &#160;(Embedded)</text>
<polygon fill="none" stroke="black" points="0,-420.5 0,-449.5 32,-449.5 32,-420.5 0,-420.5"/>
<text text-anchor="start" x="13.5" y="-431.3" font-family="Helvetica,sans-Serif" font-size="14.00"> </text>
<polygon fill="none" stroke="black" points="32,-420.5 32,-449.5 266,-449.5 266,-420.5 32,-420.5"/>
<text text-anchor="start" x="39" y="-431.3" font-family="Helvetica,sans-Serif" font-size="14.00"> createdAt / updatedAt &#160;(Date)</text>
</g>
<!-- Orders -->
<g id="node2" class="node">
<title>Orders</title>
<polygon fill="#4a90d9" stroke="transparent" points="509,-1403.5 509,-1432.5 865,-1432.5 865,-1403.5 509,-1403.5"/>
<polygon fill="none" stroke="white" points="509,-1403.5 509,-1432.5 865,-1432.5 865,-1403.5 509,-1403.5"/>
<text text-anchor="start" x="660" y="-1415.3" font-family="Helvetica,sans-Serif" font-weight="bold" font-size="14.00" fill="white">Orders</text>
<polygon fill="#edf2fa" stroke="transparent" points="509,-1374.5 509,-1403.5 541,-1403.5 541,-1374.5 509,-1374.5"/>
<polygon fill="none" stroke="black" points="509,-1374.5 509,-1403.5 541,-1403.5 541,-1374.5 509,-1374.5"/>
<text text-anchor="start" x="516" y="-1385.3" font-family="Helvetica,sans-Serif" font-size="14.00">🔑</text>
<polygon fill="#edf2fa" stroke="transparent" points="541,-1374.5 541,-1403.5 865,-1403.5 865,-1374.5 541,-1374.5"/>
<polygon fill="none" stroke="black" points="541,-1374.5 541,-1403.5 865,-1403.5 865,-1374.5 541,-1374.5"/>
<text text-anchor="start" x="548" y="-1385.3" font-family="Helvetica,sans-Serif" font-size="14.00"> _id &#160;(ObjectId)</text>
<polygon fill="none" stroke="black" points="509,-1345.5 509,-1374.5 541,-1374.5 541,-1345.5 509,-1345.5"/>
<text text-anchor="start" x="516" y="-1356.3" font-family="Helvetica,sans-Serif" font-size="14.00">🔗</text>
<polygon fill="none" stroke="black" points="541,-1345.5 541,-1374.5 865,-1374.5 865,-1345.5 541,-1345.5"/>
<text text-anchor="start" x="548" y="-1356.3" font-family="Helvetica,sans-Serif" font-size="14.00"> user &#160;(FK → Users._id) *</text>
<polygon fill="none" stroke="black" points="509,-1316.5 509,-1345.5 541,-1345.5 541,-1316.5 509,-1316.5"/>
<text text-anchor="start" x="522.5" y="-1327.3" font-family="Helvetica,sans-Serif" font-size="14.00"> </text>
<polygon fill="none" stroke="black" points="541,-1316.5 541,-1345.5 865,-1345.5 865,-1316.5 541,-1316.5"/>
<text text-anchor="start" x="548" y="-1327.3" font-family="Helvetica,sans-Serif" font-size="14.00"> orderNumber &#160;(String) unique</text>
<polygon fill="none" stroke="black" points="509,-1287.5 509,-1316.5 541,-1316.5 541,-1287.5 509,-1287.5"/>
<text text-anchor="start" x="522.5" y="-1298.3" font-family="Helvetica,sans-Serif" font-size="14.00"> </text>
<polygon fill="none" stroke="black" points="541,-1287.5 541,-1316.5 865,-1316.5 865,-1287.5 541,-1287.5"/>
<text text-anchor="start" x="548" y="-1298.3" font-family="Helvetica,sans-Serif" font-size="14.00"> serviceType &#160;(String)</text>
<polygon fill="none" stroke="black" points="509,-1258.5 509,-1287.5 541,-1287.5 541,-1258.5 509,-1258.5"/>
<text text-anchor="start" x="522.5" y="-1269.3" font-family="Helvetica,sans-Serif" font-size="14.00"> </text>
<polygon fill="none" stroke="black" points="541,-1258.5 541,-1287.5 865,-1287.5 865,-1258.5 541,-1258.5"/>
<text text-anchor="start" x="548" y="-1269.3" font-family="Helvetica,sans-Serif" font-size="14.00"> pickupDate / pickupTime &#160;(String)</text>
<polygon fill="none" stroke="black" points="509,-1229.5 509,-1258.5 541,-1258.5 541,-1229.5 509,-1229.5"/>
<text text-anchor="start" x="522.5" y="-1240.3" font-family="Helvetica,sans-Serif" font-size="14.00"> </text>
<polygon fill="none" stroke="black" points="541,-1229.5 541,-1258.5 865,-1258.5 865,-1229.5 541,-1229.5"/>
<text text-anchor="start" x="548" y="-1240.3" font-family="Helvetica,sans-Serif" font-size="14.00"> deliveryDate &#160;(String)</text>
<polygon fill="none" stroke="black" points="509,-1200.5 509,-1229.5 541,-1229.5 541,-1200.5 509,-1200.5"/>
<text text-anchor="start" x="522.5" y="-1211.3" font-family="Helvetica,sans-Serif" font-size="14.00"> </text>
<polygon fill="none" stroke="black" points="541,-1200.5 541,-1229.5 865,-1229.5 865,-1200.5 541,-1200.5"/>
<text text-anchor="start" x="548" y="-1211.3" font-family="Helvetica,sans-Serif" font-size="14.00"> items[] &#160;→ OrderItems (Embedded)</text>
<polygon fill="none" stroke="black" points="509,-1171.5 509,-1200.5 541,-1200.5 541,-1171.5 509,-1171.5"/>
<text text-anchor="start" x="522.5" y="-1182.3" font-family="Helvetica,sans-Serif" font-size="14.00"> </text>
<polygon fill="none" stroke="black" points="541,-1171.5 541,-1200.5 865,-1200.5 865,-1171.5 541,-1171.5"/>
<text text-anchor="start" x="548" y="-1182.3" font-family="Helvetica,sans-Serif" font-size="14.00"> totalAmount &#160;(Number)</text>
<polygon fill="none" stroke="black" points="509,-1142.5 509,-1171.5 541,-1171.5 541,-1142.5 509,-1142.5"/>
<text text-anchor="start" x="522.5" y="-1153.3" font-family="Helvetica,sans-Serif" font-size="14.00"> </text>
<polygon fill="none" stroke="black" points="541,-1142.5 541,-1171.5 865,-1171.5 865,-1142.5 541,-1142.5"/>
<text text-anchor="start" x="548" y="-1153.3" font-family="Helvetica,sans-Serif" font-size="14.00"> address / phone &#160;(String)</text>
<polygon fill="none" stroke="black" points="509,-1113.5 509,-1142.5 541,-1142.5 541,-1113.5 509,-1113.5"/>
<text text-anchor="start" x="522.5" y="-1124.3" font-family="Helvetica,sans-Serif" font-size="14.00"> </text>
<polygon fill="none" stroke="black" points="541,-1113.5 541,-1142.5 865,-1142.5 865,-1113.5 541,-1113.5"/>
<text text-anchor="start" x="548" y="-1124.3" font-family="Helvetica,sans-Serif" font-size="14.00"> specialInstructions &#160;(String)</text>
<polygon fill="none" stroke="black" points="509,-1084.5 509,-1113.5 541,-1113.5 541,-1084.5 509,-1084.5"/>
<text text-anchor="start" x="522.5" y="-1095.3" font-family="Helvetica,sans-Serif" font-size="14.00"> </text>
<polygon fill="none" stroke="black" points="541,-1084.5 541,-1113.5 865,-1113.5 865,-1084.5 541,-1084.5"/>
<text text-anchor="start" x="548" y="-1095.3" font-family="Helvetica,sans-Serif" font-size="14.00"> status &#160;(String) &#160;default: pending</text>
<polygon fill="none" stroke="black" points="509,-1055.5 509,-1084.5 541,-1084.5 541,-1055.5 509,-1055.5"/>
<text text-anchor="start" x="522.5" y="-1066.3" font-family="Helvetica,sans-Serif" font-size="14.00"> </text>
<polygon fill="none" stroke="black" points="541,-1055.5 541,-1084.5 865,-1084.5 865,-1055.5 541,-1055.5"/>
<text text-anchor="start" x="548" y="-1066.3" font-family="Helvetica,sans-Serif" font-size="14.00"> paymentStatus &#160;(String)</text>
<polygon fill="none" stroke="black" points="509,-1026.5 509,-1055.5 541,-1055.5 541,-1026.5 509,-1026.5"/>
<text text-anchor="start" x="522.5" y="-1037.3" font-family="Helvetica,sans-Serif" font-size="14.00"> </text>
<polygon fill="none" stroke="black" points="541,-1026.5 541,-1055.5 865,-1055.5 865,-1026.5 541,-1026.5"/>
<text text-anchor="start" x="548" y="-1037.3" font-family="Helvetica,sans-Serif" font-size="14.00"> feedback { rating, comment, submittedAt }</text>
<polygon fill="none" stroke="black" points="509,-997.5 509,-1026.5 541,-1026.5 541,-997.5 509,-997.5"/>
<text text-anchor="start" x="522.5" y="-1008.3" font-family="Helvetica,sans-Serif" font-size="14.00"> </text>
<polygon fill="none" stroke="black" points="541,-997.5 541,-1026.5 865,-1026.5 865,-997.5 541,-997.5"/>
<text text-anchor="start" x="548" y="-1008.3" font-family="Helvetica,sans-Serif" font-size="14.00"> createdAt / updatedAt &#160;(Date)</text>
</g>
<!-- Users&#45;&gt;Orders -->
<g id="edge1" class="edge">
<title>Users&#45;&gt;Orders</title>
<path fill="none" stroke="#4a90d9" stroke-width="2" d="M266.15,-855C376.73,-855 516,-855 516,-855 516,-855 516,-988 516,-988"/>
<polygon fill="#4a90d9" stroke="#4a90d9" stroke-width="2" points="512.5,-988 516,-998 519.5,-988 512.5,-988"/>
<text text-anchor="middle" x="387.5" y="-1067.5" font-family="Helvetica,sans-Serif" font-size="10.00"> &#160;places &#160;</text>
<text text-anchor="middle" x="507" y="-990" font-family="Helvetica,sans-Serif" font-size="10.00">M *</text>
<text text-anchor="middle" x="269.65" y="-847" font-family="Helvetica,sans-Serif" font-size="10.00">1</text>
</g>
<!-- Tracking -->
<g id="node4" class="node">
<title>Tracking</title>
<polygon fill="#4a90d9" stroke="transparent" points="1133,-1665.5 1133,-1694.5 1452,-1694.5 1452,-1665.5 1133,-1665.5"/>
<polygon fill="none" stroke="white" points="1133,-1665.5 1133,-1694.5 1452,-1694.5 1452,-1665.5 1133,-1665.5"/>
<text text-anchor="start" x="1259" y="-1677.3" font-family="Helvetica,sans-Serif" font-weight="bold" font-size="14.00" fill="white">Tracking</text>
<polygon fill="#edf2fa" stroke="transparent" points="1133,-1636.5 1133,-1665.5 1165,-1665.5 1165,-1636.5 1133,-1636.5"/>
<polygon fill="none" stroke="black" points="1133,-1636.5 1133,-1665.5 1165,-1665.5 1165,-1636.5 1133,-1636.5"/>
<text text-anchor="start" x="1140" y="-1647.3" font-family="Helvetica,sans-Serif" font-size="14.00">🔑</text>
<polygon fill="#edf2fa" stroke="transparent" points="1165,-1636.5 1165,-1665.5 1452,-1665.5 1452,-1636.5 1165,-1636.5"/>
<polygon fill="none" stroke="black" points="1165,-1636.5 1165,-1665.5 1452,-1665.5 1452,-1636.5 1165,-1636.5"/>
<text text-anchor="start" x="1172" y="-1647.3" font-family="Helvetica,sans-Serif" font-size="14.00"> _id &#160;(ObjectId)</text>
<polygon fill="none" stroke="black" points="1133,-1607.5 1133,-1636.5 1165,-1636.5 1165,-1607.5 1133,-1607.5"/>
<text text-anchor="start" x="1140" y="-1618.3" font-family="Helvetica,sans-Serif" font-size="14.00">🔗</text>
<polygon fill="none" stroke="black" points="1165,-1607.5 1165,-1636.5 1452,-1636.5 1452,-1607.5 1165,-1607.5"/>
<text text-anchor="start" x="1172" y="-1618.3" font-family="Helvetica,sans-Serif" font-size="14.00"> user &#160;(FK → Users._id) *</text>
<polygon fill="none" stroke="black" points="1133,-1578.5 1133,-1607.5 1165,-1607.5 1165,-1578.5 1133,-1578.5"/>
<text text-anchor="start" x="1140" y="-1589.3" font-family="Helvetica,sans-Serif" font-size="14.00">🔗</text>
<polygon fill="none" stroke="black" points="1165,-1578.5 1165,-1607.5 1452,-1607.5 1452,-1578.5 1165,-1578.5"/>
<text text-anchor="start" x="1172" y="-1589.3" font-family="Helvetica,sans-Serif" font-size="14.00"> order &#160;(FK → Orders._id)</text>
<polygon fill="none" stroke="black" points="1133,-1549.5 1133,-1578.5 1165,-1578.5 1165,-1549.5 1133,-1549.5"/>
<text text-anchor="start" x="1146.5" y="-1560.3" font-family="Helvetica,sans-Serif" font-size="14.00"> </text>
<polygon fill="none" stroke="black" points="1165,-1549.5 1165,-1578.5 1452,-1578.5 1452,-1549.5 1165,-1549.5"/>
<text text-anchor="start" x="1172" y="-1560.3" font-family="Helvetica,sans-Serif" font-size="14.00"> orderNumber &#160;(String)</text>
<polygon fill="none" stroke="black" points="1133,-1520.5 1133,-1549.5 1165,-1549.5 1165,-1520.5 1133,-1520.5"/>
<text text-anchor="start" x="1146.5" y="-1531.3" font-family="Helvetica,sans-Serif" font-size="14.00"> </text>
<polygon fill="none" stroke="black" points="1165,-1520.5 1165,-1549.5 1452,-1549.5 1452,-1520.5 1165,-1520.5"/>
<text text-anchor="start" x="1172" y="-1531.3" font-family="Helvetica,sans-Serif" font-size="14.00"> status &#160;(String) &#160;default: pending</text>
<polygon fill="none" stroke="black" points="1133,-1491.5 1133,-1520.5 1165,-1520.5 1165,-1491.5 1133,-1491.5"/>
<text text-anchor="start" x="1146.5" y="-1502.3" font-family="Helvetica,sans-Serif" font-size="14.00"> </text>
<polygon fill="none" stroke="black" points="1165,-1491.5 1165,-1520.5 1452,-1520.5 1452,-1491.5 1165,-1491.5"/>
<text text-anchor="start" x="1172" y="-1502.3" font-family="Helvetica,sans-Serif" font-size="14.00"> currentLocation &#160;(String)</text>
<polygon fill="none" stroke="black" points="1133,-1462.5 1133,-1491.5 1165,-1491.5 1165,-1462.5 1133,-1462.5"/>
<text text-anchor="start" x="1146.5" y="-1473.3" font-family="Helvetica,sans-Serif" font-size="14.00"> </text>
<polygon fill="none" stroke="black" points="1165,-1462.5 1165,-1491.5 1452,-1491.5 1452,-1462.5 1165,-1462.5"/>
<text text-anchor="start" x="1172" y="-1473.3" font-family="Helvetica,sans-Serif" font-size="14.00"> estimatedDelivery &#160;(String)</text>
<polygon fill="none" stroke="black" points="1133,-1433.5 1133,-1462.5 1165,-1462.5 1165,-1433.5 1133,-1433.5"/>
<text text-anchor="start" x="1146.5" y="-1444.3" font-family="Helvetica,sans-Serif" font-size="14.00"> </text>
<polygon fill="none" stroke="black" points="1165,-1433.5 1165,-1462.5 1452,-1462.5 1452,-1433.5 1165,-1433.5"/>
<text text-anchor="start" x="1172" y="-1444.3" font-family="Helvetica,sans-Serif" font-size="14.00"> notifyWhenReady &#160;(Boolean)</text>
<polygon fill="none" stroke="black" points="1133,-1404.5 1133,-1433.5 1165,-1433.5 1165,-1404.5 1133,-1404.5"/>
<text text-anchor="start" x="1146.5" y="-1415.3" font-family="Helvetica,sans-Serif" font-size="14.00"> </text>
<polygon fill="none" stroke="black" points="1165,-1404.5 1165,-1433.5 1452,-1433.5 1452,-1404.5 1165,-1404.5"/>
<text text-anchor="start" x="1172" y="-1415.3" font-family="Helvetica,sans-Serif" font-size="14.00"> timeline[] &#160;{ status, timestamp, note }</text>
<polygon fill="none" stroke="black" points="1133,-1375.5 1133,-1404.5 1165,-1404.5 1165,-1375.5 1133,-1375.5"/>
<text text-anchor="start" x="1146.5" y="-1386.3" font-family="Helvetica,sans-Serif" font-size="14.00"> </text>
<polygon fill="none" stroke="black" points="1165,-1375.5 1165,-1404.5 1452,-1404.5 1452,-1375.5 1165,-1375.5"/>
<text text-anchor="start" x="1172" y="-1386.3" font-family="Helvetica,sans-Serif" font-size="14.00"> createdAt / updatedAt &#160;(Date)</text>
</g>
<!-- Users&#45;&gt;Tracking -->
<g id="edge2" class="edge">
<title>Users&#45;&gt;Tracking</title>
<path fill="none" stroke="#4a90d9" stroke-width="2" d="M133,-914.25C133,-1179.63 133,-1564 133,-1564 133,-1564 1122.37,-1564 1122.37,-1564"/>
<polygon fill="#4a90d9" stroke="#4a90d9" stroke-width="2" points="1122.37,-1567.5 1132.37,-1564 1122.37,-1560.5 1122.37,-1567.5"/>
<text text-anchor="middle" x="687" y="-1552.5" font-family="Helvetica,sans-Serif" font-size="10.00"> &#160;tracks &#160;</text>
<text text-anchor="middle" x="1123.37" y="-1556" font-family="Helvetica,sans-Serif" font-size="10.00">M *</text>
<text text-anchor="middle" x="129.5" y="-917.25" font-family="Helvetica,sans-Serif" font-size="10.00">1</text>
</g>
<!-- Subscriptions -->
<g id="node5" class="node">
<title>Subscriptions</title>
<polygon fill="#4a90d9" stroke="transparent" points="547,-910.5 547,-939.5 828,-939.5 828,-910.5 547,-910.5"/>
<polygon fill="none" stroke="white" points="547,-910.5 547,-939.5 828,-939.5 828,-910.5 547,-910.5"/>
<text text-anchor="start" x="634.5" y="-922.3" font-family="Helvetica,sans-Serif" font-weight="bold" font-size="14.00" fill="white">Subscriptions</text>
<polygon fill="#edf2fa" stroke="transparent" points="547,-881.5 547,-910.5 579,-910.5 579,-881.5 547,-881.5"/>
<polygon fill="none" stroke="black" points="547,-881.5 547,-910.5 579,-910.5 579,-881.5 547,-881.5"/>
<text text-anchor="start" x="554" y="-892.3" font-family="Helvetica,sans-Serif" font-size="14.00">🔑</text>
<polygon fill="#edf2fa" stroke="transparent" points="579,-881.5 579,-910.5 828,-910.5 828,-881.5 579,-881.5"/>
<polygon fill="none" stroke="black" points="579,-881.5 579,-910.5 828,-910.5 828,-881.5 579,-881.5"/>
<text text-anchor="start" x="586" y="-892.3" font-family="Helvetica,sans-Serif" font-size="14.00"> _id &#160;(ObjectId)</text>
<polygon fill="none" stroke="black" points="547,-852.5 547,-881.5 579,-881.5 579,-852.5 547,-852.5"/>
<text text-anchor="start" x="554" y="-863.3" font-family="Helvetica,sans-Serif" font-size="14.00">🔗</text>
<polygon fill="none" stroke="black" points="579,-852.5 579,-881.5 828,-881.5 828,-852.5 579,-852.5"/>
<text text-anchor="start" x="586" y="-863.3" font-family="Helvetica,sans-Serif" font-size="14.00"> user &#160;(FK → Users._id) *</text>
<polygon fill="none" stroke="black" points="547,-823.5 547,-852.5 579,-852.5 579,-823.5 547,-823.5"/>
<text text-anchor="start" x="560.5" y="-834.3" font-family="Helvetica,sans-Serif" font-size="14.00"> </text>
<polygon fill="none" stroke="black" points="579,-823.5 579,-852.5 828,-852.5 828,-823.5 579,-823.5"/>
<text text-anchor="start" x="586" y="-834.3" font-family="Helvetica,sans-Serif" font-size="14.00"> endpoint &#160;(String) * unique</text>
<polygon fill="none" stroke="black" points="547,-794.5 547,-823.5 579,-823.5 579,-794.5 547,-794.5"/>
<text text-anchor="start" x="560.5" y="-805.3" font-family="Helvetica,sans-Serif" font-size="14.00"> </text>
<polygon fill="none" stroke="black" points="579,-794.5 579,-823.5 828,-823.5 828,-794.5 579,-794.5"/>
<text text-anchor="start" x="586" y="-805.3" font-family="Helvetica,sans-Serif" font-size="14.00"> keys { p256dh, auth } &#160;(String) *</text>
<polygon fill="none" stroke="black" points="547,-765.5 547,-794.5 579,-794.5 579,-765.5 547,-765.5"/>
<text text-anchor="start" x="560.5" y="-776.3" font-family="Helvetica,sans-Serif" font-size="14.00"> </text>
<polygon fill="none" stroke="black" points="579,-765.5 579,-794.5 828,-794.5 828,-765.5 579,-765.5"/>
<text text-anchor="start" x="586" y="-776.3" font-family="Helvetica,sans-Serif" font-size="14.00"> userAgent &#160;(String)</text>
<polygon fill="none" stroke="black" points="547,-736.5 547,-765.5 579,-765.5 579,-736.5 547,-736.5"/>
<text text-anchor="start" x="560.5" y="-747.3" font-family="Helvetica,sans-Serif" font-size="14.00"> </text>
<polygon fill="none" stroke="black" points="579,-736.5 579,-765.5 828,-765.5 828,-736.5 579,-736.5"/>
<text text-anchor="start" x="586" y="-747.3" font-family="Helvetica,sans-Serif" font-size="14.00"> createdAt &#160;(Date) &#160;TTL: 90 days</text>
</g>
<!-- Users&#45;&gt;Subscriptions -->
<g id="edge3" class="edge">
<title>Users&#45;&gt;Subscriptions</title>
<path fill="none" stroke="#4a90d9" stroke-width="2" d="M266.05,-796C266.05,-796 536.36,-796 536.36,-796"/>
<polygon fill="#4a90d9" stroke="#4a90d9" stroke-width="2" points="536.36,-799.5 546.36,-796 536.36,-792.5 536.36,-799.5"/>
<text text-anchor="middle" x="387.5" y="-841.5" font-family="Helvetica,sans-Serif" font-size="10.00"> &#160;subscribes &#160;</text>
<text text-anchor="middle" x="537.36" y="-788" font-family="Helvetica,sans-Serif" font-size="10.00">M *</text>
<text text-anchor="middle" x="269.55" y="-788" font-family="Helvetica,sans-Serif" font-size="10.00">1</text>
</g>
<!-- SupportTickets -->
<g id="node6" class="node">
<title>SupportTickets</title>
<polygon fill="#4a90d9" stroke="transparent" points="1125,-919.5 1125,-948.5 1459,-948.5 1459,-919.5 1125,-919.5"/>
<polygon fill="none" stroke="white" points="1125,-919.5 1125,-948.5 1459,-948.5 1459,-919.5 1125,-919.5"/>
<text text-anchor="start" x="1232.5" y="-931.3" font-family="Helvetica,sans-Serif" font-weight="bold" font-size="14.00" fill="white">SupportTickets</text>
<polygon fill="#edf2fa" stroke="transparent" points="1125,-890.5 1125,-919.5 1157,-919.5 1157,-890.5 1125,-890.5"/>
<polygon fill="none" stroke="black" points="1125,-890.5 1125,-919.5 1157,-919.5 1157,-890.5 1125,-890.5"/>
<text text-anchor="start" x="1132" y="-901.3" font-family="Helvetica,sans-Serif" font-size="14.00">🔑</text>
<polygon fill="#edf2fa" stroke="transparent" points="1157,-890.5 1157,-919.5 1459,-919.5 1459,-890.5 1157,-890.5"/>
<polygon fill="none" stroke="black" points="1157,-890.5 1157,-919.5 1459,-919.5 1459,-890.5 1157,-890.5"/>
<text text-anchor="start" x="1164" y="-901.3" font-family="Helvetica,sans-Serif" font-size="14.00"> _id &#160;(ObjectId)</text>
<polygon fill="none" stroke="black" points="1125,-861.5 1125,-890.5 1157,-890.5 1157,-861.5 1125,-861.5"/>
<text text-anchor="start" x="1132" y="-872.3" font-family="Helvetica,sans-Serif" font-size="14.00">🔗</text>
<polygon fill="none" stroke="black" points="1157,-861.5 1157,-890.5 1459,-890.5 1459,-861.5 1157,-861.5"/>
<text text-anchor="start" x="1164" y="-872.3" font-family="Helvetica,sans-Serif" font-size="14.00"> user &#160;(FK → Users._id) *</text>
<polygon fill="none" stroke="black" points="1125,-832.5 1125,-861.5 1157,-861.5 1157,-832.5 1125,-832.5"/>
<text text-anchor="start" x="1132" y="-843.3" font-family="Helvetica,sans-Serif" font-size="14.00">🔗</text>
<polygon fill="none" stroke="black" points="1157,-832.5 1157,-861.5 1459,-861.5 1459,-832.5 1157,-832.5"/>
<text text-anchor="start" x="1164" y="-843.3" font-family="Helvetica,sans-Serif" font-size="14.00"> orderId &#160;(FK → Orders._id) *</text>
<polygon fill="none" stroke="black" points="1125,-803.5 1125,-832.5 1157,-832.5 1157,-803.5 1125,-803.5"/>
<text text-anchor="start" x="1138.5" y="-814.3" font-family="Helvetica,sans-Serif" font-size="14.00"> </text>
<polygon fill="none" stroke="black" points="1157,-803.5 1157,-832.5 1459,-832.5 1459,-803.5 1157,-803.5"/>
<text text-anchor="start" x="1164" y="-814.3" font-family="Helvetica,sans-Serif" font-size="14.00"> orderNumber &#160;(String) *</text>
<polygon fill="none" stroke="black" points="1125,-774.5 1125,-803.5 1157,-803.5 1157,-774.5 1125,-774.5"/>
<text text-anchor="start" x="1138.5" y="-785.3" font-family="Helvetica,sans-Serif" font-size="14.00"> </text>
<polygon fill="none" stroke="black" points="1157,-774.5 1157,-803.5 1459,-803.5 1459,-774.5 1157,-774.5"/>
<text text-anchor="start" x="1164" y="-785.3" font-family="Helvetica,sans-Serif" font-size="14.00"> type &#160;(String) * [enum]</text>
<polygon fill="none" stroke="black" points="1125,-745.5 1125,-774.5 1157,-774.5 1157,-745.5 1125,-745.5"/>
<text text-anchor="start" x="1138.5" y="-756.3" font-family="Helvetica,sans-Serif" font-size="14.00"> </text>
<polygon fill="none" stroke="black" points="1157,-745.5 1157,-774.5 1459,-774.5 1459,-745.5 1157,-745.5"/>
<text text-anchor="start" x="1164" y="-756.3" font-family="Helvetica,sans-Serif" font-size="14.00"> items / damageType / details &#160;(String)</text>
<polygon fill="none" stroke="black" points="1125,-716.5 1125,-745.5 1157,-745.5 1157,-716.5 1125,-716.5"/>
<text text-anchor="start" x="1138.5" y="-727.3" font-family="Helvetica,sans-Serif" font-size="14.00"> </text>
<polygon fill="none" stroke="black" points="1157,-716.5 1157,-745.5 1459,-745.5 1459,-716.5 1157,-716.5"/>
<text text-anchor="start" x="1164" y="-727.3" font-family="Helvetica,sans-Serif" font-size="14.00"> status &#160;(String) [enum] &#160;default: pending</text>
<polygon fill="none" stroke="black" points="1125,-687.5 1125,-716.5 1157,-716.5 1157,-687.5 1125,-687.5"/>
<text text-anchor="start" x="1138.5" y="-698.3" font-family="Helvetica,sans-Serif" font-size="14.00"> </text>
<polygon fill="none" stroke="black" points="1157,-687.5 1157,-716.5 1459,-716.5 1459,-687.5 1157,-687.5"/>
<text text-anchor="start" x="1164" y="-698.3" font-family="Helvetica,sans-Serif" font-size="14.00"> response &#160;(String)</text>
<polygon fill="none" stroke="black" points="1125,-658.5 1125,-687.5 1157,-687.5 1157,-658.5 1125,-658.5"/>
<text text-anchor="start" x="1138.5" y="-669.3" font-family="Helvetica,sans-Serif" font-size="14.00"> </text>
<polygon fill="none" stroke="black" points="1157,-658.5 1157,-687.5 1459,-687.5 1459,-658.5 1157,-658.5"/>
<text text-anchor="start" x="1164" y="-669.3" font-family="Helvetica,sans-Serif" font-size="14.00"> resolvedAt &#160;(Date)</text>
<polygon fill="none" stroke="black" points="1125,-629.5 1125,-658.5 1157,-658.5 1157,-629.5 1125,-629.5"/>
<text text-anchor="start" x="1138.5" y="-640.3" font-family="Helvetica,sans-Serif" font-size="14.00"> </text>
<polygon fill="none" stroke="black" points="1157,-629.5 1157,-658.5 1459,-658.5 1459,-629.5 1157,-629.5"/>
<text text-anchor="start" x="1164" y="-640.3" font-family="Helvetica,sans-Serif" font-size="14.00"> createdAt / updatedAt &#160;(Date)</text>
</g>
<!-- Users&#45;&gt;SupportTickets -->
<g id="edge4" class="edge">
<title>Users&#45;&gt;SupportTickets</title>
<path fill="none" stroke="#4a90d9" stroke-width="2" d="M266.23,-683.5C266.23,-683.5 1114.8,-683.5 1114.8,-683.5"/>
<polygon fill="#4a90d9" stroke="#4a90d9" stroke-width="2" points="1114.8,-687 1124.8,-683.5 1114.8,-680 1114.8,-687"/>
<text text-anchor="middle" x="687" y="-670.5" font-family="Helvetica,sans-Serif" font-size="10.00"> &#160;raises &#160;</text>
<text text-anchor="middle" x="1115.8" y="-675.5" font-family="Helvetica,sans-Serif" font-size="10.00">M *</text>
<text text-anchor="middle" x="269.73" y="-675.5" font-family="Helvetica,sans-Serif" font-size="10.00">1</text>
</g>
<!-- ContactMessages -->
<g id="node7" class="node">
<title>ContactMessages</title>
<polygon fill="#4a90d9" stroke="transparent" points="523,-522.5 523,-551.5 852,-551.5 852,-522.5 523,-522.5"/>
<polygon fill="none" stroke="white" points="523,-522.5 523,-551.5 852,-551.5 852,-522.5 523,-522.5"/>
<text text-anchor="start" x="617.5" y="-534.3" font-family="Helvetica,sans-Serif" font-weight="bold" font-size="14.00" fill="white">ContactMessages</text>
<polygon fill="#edf2fa" stroke="transparent" points="523,-493.5 523,-522.5 555,-522.5 555,-493.5 523,-493.5"/>
<polygon fill="none" stroke="black" points="523,-493.5 523,-522.5 555,-522.5 555,-493.5 523,-493.5"/>
<text text-anchor="start" x="530" y="-504.3" font-family="Helvetica,sans-Serif" font-size="14.00">🔑</text>
<polygon fill="#edf2fa" stroke="transparent" points="555,-493.5 555,-522.5 852,-522.5 852,-493.5 555,-493.5"/>
<polygon fill="none" stroke="black" points="555,-493.5 555,-522.5 852,-522.5 852,-493.5 555,-493.5"/>
<text text-anchor="start" x="562" y="-504.3" font-family="Helvetica,sans-Serif" font-size="14.00"> _id &#160;(ObjectId)</text>
<polygon fill="none" stroke="black" points="523,-464.5 523,-493.5 555,-493.5 555,-464.5 523,-464.5"/>
<text text-anchor="start" x="530" y="-475.3" font-family="Helvetica,sans-Serif" font-size="14.00">🔗</text>
<polygon fill="none" stroke="black" points="555,-464.5 555,-493.5 852,-493.5 852,-464.5 555,-464.5"/>
<text text-anchor="start" x="562" y="-475.3" font-family="Helvetica,sans-Serif" font-size="14.00"> user &#160;(FK → Users._id) &#160;optional</text>
<polygon fill="none" stroke="black" points="523,-435.5 523,-464.5 555,-464.5 555,-435.5 523,-435.5"/>
<text text-anchor="start" x="530" y="-446.3" font-family="Helvetica,sans-Serif" font-size="14.00">🔗</text>
<polygon fill="none" stroke="black" points="555,-435.5 555,-464.5 852,-464.5 852,-435.5 555,-435.5"/>
<text text-anchor="start" x="562" y="-446.3" font-family="Helvetica,sans-Serif" font-size="14.00"> respondedBy &#160;(FK → Users._id) &#160;optional</text>
<polygon fill="none" stroke="black" points="523,-406.5 523,-435.5 555,-435.5 555,-406.5 523,-406.5"/>
<text text-anchor="start" x="536.5" y="-417.3" font-family="Helvetica,sans-Serif" font-size="14.00"> </text>
<polygon fill="none" stroke="black" points="555,-406.5 555,-435.5 852,-435.5 852,-406.5 555,-406.5"/>
<text text-anchor="start" x="562" y="-417.3" font-family="Helvetica,sans-Serif" font-size="14.00"> name / email &#160;(String) *</text>
<polygon fill="none" stroke="black" points="523,-377.5 523,-406.5 555,-406.5 555,-377.5 523,-377.5"/>
<text text-anchor="start" x="536.5" y="-388.3" font-family="Helvetica,sans-Serif" font-size="14.00"> </text>
<polygon fill="none" stroke="black" points="555,-377.5 555,-406.5 852,-406.5 852,-377.5 555,-377.5"/>
<text text-anchor="start" x="562" y="-388.3" font-family="Helvetica,sans-Serif" font-size="14.00"> hostelRoom &#160;(String)</text>
<polygon fill="none" stroke="black" points="523,-348.5 523,-377.5 555,-377.5 555,-348.5 523,-348.5"/>
<text text-anchor="start" x="536.5" y="-359.3" font-family="Helvetica,sans-Serif" font-size="14.00"> </text>
<polygon fill="none" stroke="black" points="555,-348.5 555,-377.5 852,-377.5 852,-348.5 555,-348.5"/>
<text text-anchor="start" x="562" y="-359.3" font-family="Helvetica,sans-Serif" font-size="14.00"> message &#160;(String) *</text>
<polygon fill="none" stroke="black" points="523,-319.5 523,-348.5 555,-348.5 555,-319.5 523,-319.5"/>
<text text-anchor="start" x="536.5" y="-330.3" font-family="Helvetica,sans-Serif" font-size="14.00"> </text>
<polygon fill="none" stroke="black" points="555,-319.5 555,-348.5 852,-348.5 852,-319.5 555,-319.5"/>
<text text-anchor="start" x="562" y="-330.3" font-family="Helvetica,sans-Serif" font-size="14.00"> status / staffResponse &#160;(String)</text>
<polygon fill="none" stroke="black" points="523,-290.5 523,-319.5 555,-319.5 555,-290.5 523,-290.5"/>
<text text-anchor="start" x="536.5" y="-301.3" font-family="Helvetica,sans-Serif" font-size="14.00"> </text>
<polygon fill="none" stroke="black" points="555,-290.5 555,-319.5 852,-319.5 852,-290.5 555,-290.5"/>
<text text-anchor="start" x="562" y="-301.3" font-family="Helvetica,sans-Serif" font-size="14.00"> respondedAt &#160;(Date)</text>
<polygon fill="none" stroke="black" points="523,-261.5 523,-290.5 555,-290.5 555,-261.5 523,-261.5"/>
<text text-anchor="start" x="536.5" y="-272.3" font-family="Helvetica,sans-Serif" font-size="14.00"> </text>
<polygon fill="none" stroke="black" points="555,-261.5 555,-290.5 852,-290.5 852,-261.5 555,-261.5"/>
<text text-anchor="start" x="562" y="-272.3" font-family="Helvetica,sans-Serif" font-size="14.00"> createdAt / updatedAt &#160;(Date)</text>
</g>
<!-- Users&#45;&gt;ContactMessages -->
<g id="edge5" class="edge">
<title>Users&#45;&gt;ContactMessages</title>
<path fill="none" stroke="#4a90d9" stroke-width="2" d="M266.05,-464.5C266.05,-464.5 512.38,-464.5 512.38,-464.5"/>
<polygon fill="#4a90d9" stroke="#4a90d9" stroke-width="2" points="512.38,-468 522.38,-464.5 512.38,-461 512.38,-468"/>
<text text-anchor="middle" x="387.5" y="-444.5" font-family="Helvetica,sans-Serif" font-size="10.00"> &#160;sends &#160;</text>
<text text-anchor="middle" x="517.38" y="-456.5" font-family="Helvetica,sans-Serif" font-size="10.00">M</text>
<text text-anchor="middle" x="275.55" y="-456.5" font-family="Helvetica,sans-Serif" font-size="10.00">0..1</text>
</g>
<!-- Users&#45;&gt;ContactMessages -->
<g id="edge7" class="edge">
<title>Users&#45;&gt;ContactMessages</title>
<path fill="none" stroke="#9c27b0" stroke-dasharray="5,2" d="M266.05,-508C266.05,-508 512.38,-508 512.38,-508"/>
<polygon fill="#9c27b0" stroke="#9c27b0" points="512.38,-511.5 522.38,-508 512.38,-504.5 512.38,-511.5"/>
<text text-anchor="middle" x="387.5" y="-588.5" font-family="Helvetica,sans-Serif" font-size="10.00"> &#160;responds (Admin) &#160;</text>
<text text-anchor="middle" x="517.38" y="-500" font-family="Helvetica,sans-Serif" font-size="10.00">M</text>
<text text-anchor="middle" x="275.55" y="-500" font-family="Helvetica,sans-Serif" font-size="10.00">0..1</text>
</g>
<!-- SecurityLogs -->
<g id="node8" class="node">
<title>SecurityLogs</title>
<polygon fill="#4a90d9" stroke="transparent" points="547,-173.5 547,-202.5 828,-202.5 828,-173.5 547,-173.5"/>
<polygon fill="none" stroke="white" points="547,-173.5 547,-202.5 828,-202.5 828,-173.5 547,-173.5"/>
<text text-anchor="start" x="636.5" y="-185.3" font-family="Helvetica,sans-Serif" font-weight="bold" font-size="14.00" fill="white">SecurityLogs</text>
<polygon fill="#edf2fa" stroke="transparent" points="547,-144.5 547,-173.5 579,-173.5 579,-144.5 547,-144.5"/>
<polygon fill="none" stroke="black" points="547,-144.5 547,-173.5 579,-173.5 579,-144.5 547,-144.5"/>
<text text-anchor="start" x="554" y="-155.3" font-family="Helvetica,sans-Serif" font-size="14.00">🔑</text>
<polygon fill="#edf2fa" stroke="transparent" points="579,-144.5 579,-173.5 828,-173.5 828,-144.5 579,-144.5"/>
<polygon fill="none" stroke="black" points="579,-144.5 579,-173.5 828,-173.5 828,-144.5 579,-144.5"/>
<text text-anchor="start" x="586" y="-155.3" font-family="Helvetica,sans-Serif" font-size="14.00"> _id &#160;(ObjectId)</text>
<polygon fill="none" stroke="black" points="547,-115.5 547,-144.5 579,-144.5 579,-115.5 547,-115.5"/>
<text text-anchor="start" x="554" y="-126.3" font-family="Helvetica,sans-Serif" font-size="14.00">🔗</text>
<polygon fill="none" stroke="black" points="579,-115.5 579,-144.5 828,-144.5 828,-115.5 579,-115.5"/>
<text text-anchor="start" x="586" y="-126.3" font-family="Helvetica,sans-Serif" font-size="14.00"> userId &#160;(FK → Users._id) &#160;optional</text>
<polygon fill="none" stroke="black" points="547,-86.5 547,-115.5 579,-115.5 579,-86.5 547,-86.5"/>
<text text-anchor="start" x="560.5" y="-97.3" font-family="Helvetica,sans-Serif" font-size="14.00"> </text>
<polygon fill="none" stroke="black" points="579,-86.5 579,-115.5 828,-115.5 828,-86.5 579,-86.5"/>
<text text-anchor="start" x="586" y="-97.3" font-family="Helvetica,sans-Serif" font-size="14.00"> event &#160;(String) * [enum]</text>
<polygon fill="none" stroke="black" points="547,-57.5 547,-86.5 579,-86.5 579,-57.5 547,-57.5"/>
<text text-anchor="start" x="560.5" y="-68.3" font-family="Helvetica,sans-Serif" font-size="14.00"> </text>
<polygon fill="none" stroke="black" points="579,-57.5 579,-86.5 828,-86.5 828,-57.5 579,-57.5"/>
<text text-anchor="start" x="586" y="-68.3" font-family="Helvetica,sans-Serif" font-size="14.00"> ipAddress / userAgent &#160;(String)</text>
<polygon fill="none" stroke="black" points="547,-28.5 547,-57.5 579,-57.5 579,-28.5 547,-28.5"/>
<text text-anchor="start" x="560.5" y="-39.3" font-family="Helvetica,sans-Serif" font-size="14.00"> </text>
<polygon fill="none" stroke="black" points="579,-28.5 579,-57.5 828,-57.5 828,-28.5 579,-28.5"/>
<text text-anchor="start" x="586" y="-39.3" font-family="Helvetica,sans-Serif" font-size="14.00"> metadata &#160;(Mixed)</text>
<polygon fill="none" stroke="black" points="547,0.5 547,-28.5 579,-28.5 579,0.5 547,0.5"/>
<text text-anchor="start" x="560.5" y="-10.3" font-family="Helvetica,sans-Serif" font-size="14.00"> </text>
<polygon fill="none" stroke="black" points="579,0.5 579,-28.5 828,-28.5 828,0.5 579,0.5"/>
<text text-anchor="start" x="586" y="-10.3" font-family="Helvetica,sans-Serif" font-size="14.00"> timestamp &#160;(Date) &#160;TTL: 90 days</text>
</g>
<!-- Users&#45;&gt;SecurityLogs -->
<g id="edge6" class="edge">
<title>Users&#45;&gt;SecurityLogs</title>
<path fill="none" stroke="#4a90d9" stroke-width="2" d="M133,-420.89C133,-268.37 133,-101.5 133,-101.5 133,-101.5 536.49,-101.5 536.49,-101.5"/>
<polygon fill="#4a90d9" stroke="#4a90d9" stroke-width="2" points="536.49,-105 546.49,-101.5 536.49,-98 536.49,-105"/>
<text text-anchor="middle" x="387.5" y="-104.5" font-family="Helvetica,sans-Serif" font-size="10.00"> &#160;generates &#160;</text>
<text text-anchor="middle" x="541.49" y="-93.5" font-family="Helvetica,sans-Serif" font-size="10.00">M</text>
<text text-anchor="middle" x="123.5" y="-412.89" font-family="Helvetica,sans-Serif" font-size="10.00">0..1</text>
</g>
<!-- OrderItems -->
<g id="node3" class="node">
<title>OrderItems</title>
<polygon fill="#fff8e1" stroke="transparent" points="1173.5,-1128.5 1173.5,-1302.5 1410.5,-1302.5 1410.5,-1128.5 1173.5,-1128.5"/>
<polygon fill="#f9a825" stroke="transparent" points="1174,-1273.5 1174,-1302.5 1411,-1302.5 1411,-1273.5 1174,-1273.5"/>
<polygon fill="none" stroke="black" points="1174,-1273.5 1174,-1302.5 1411,-1302.5 1411,-1273.5 1174,-1273.5"/>
<text text-anchor="start" x="1197.5" y="-1285.3" font-family="Helvetica,sans-Serif" font-weight="bold" font-size="14.00" fill="white">OrderItems (Embedded)</text>
<polygon fill="none" stroke="black" points="1174,-1244.5 1174,-1273.5 1206,-1273.5 1206,-1244.5 1174,-1244.5"/>
<text text-anchor="start" x="1181" y="-1255.3" font-family="Helvetica,sans-Serif" font-size="14.00">🔗</text>
<polygon fill="none" stroke="black" points="1206,-1244.5 1206,-1273.5 1411,-1273.5 1411,-1244.5 1206,-1244.5"/>
<text text-anchor="start" x="1213" y="-1256.3" font-family="Helvetica,sans-Serif" font-style="italic" font-size="14.00">(belongs to Order)</text>
<polygon fill="none" stroke="black" points="1174,-1215.5 1174,-1244.5 1206,-1244.5 1206,-1215.5 1174,-1215.5"/>
<text text-anchor="start" x="1187.5" y="-1226.3" font-family="Helvetica,sans-Serif" font-size="14.00"> </text>
<polygon fill="none" stroke="black" points="1206,-1215.5 1206,-1244.5 1411,-1244.5 1411,-1215.5 1206,-1215.5"/>
<text text-anchor="start" x="1213" y="-1226.3" font-family="Helvetica,sans-Serif" font-size="14.00"> type &#160;(String)</text>
<polygon fill="none" stroke="black" points="1174,-1186.5 1174,-1215.5 1206,-1215.5 1206,-1186.5 1174,-1186.5"/>
<text text-anchor="start" x="1187.5" y="-1197.3" font-family="Helvetica,sans-Serif" font-size="14.00"> </text>
<polygon fill="none" stroke="black" points="1206,-1186.5 1206,-1215.5 1411,-1215.5 1411,-1186.5 1206,-1186.5"/>
<text text-anchor="start" x="1213" y="-1197.3" font-family="Helvetica,sans-Serif" font-size="14.00"> count / quantity &#160;(Number)</text>
<polygon fill="none" stroke="black" points="1174,-1157.5 1174,-1186.5 1206,-1186.5 1206,-1157.5 1174,-1157.5"/>
<text text-anchor="start" x="1187.5" y="-1168.3" font-family="Helvetica,sans-Serif" font-size="14.00"> </text>
<polygon fill="none" stroke="black" points="1206,-1157.5 1206,-1186.5 1411,-1186.5 1411,-1157.5 1206,-1157.5"/>
<text text-anchor="start" x="1213" y="-1168.3" font-family="Helvetica,sans-Serif" font-size="14.00"> name &#160;(String)</text>
<polygon fill="none" stroke="black" points="1174,-1128.5 1174,-1157.5 1206,-1157.5 1206,-1128.5 1174,-1128.5"/>
<text text-anchor="start" x="1187.5" y="-1139.3" font-family="Helvetica,sans-Serif" font-size="14.00"> </text>
<polygon fill="none" stroke="black" points="1206,-1128.5 1206,-1157.5 1411,-1157.5 1411,-1128.5 1206,-1128.5"/>
<text text-anchor="start" x="1213" y="-1139.3" font-family="Helvetica,sans-Serif" font-size="14.00"> color &#160;(String)</text>
</g>
<!-- Orders&#45;&gt;OrderItems -->
<g id="edge10" class="edge">
<title>Orders&#45;&gt;OrderItems</title>
<path fill="none" stroke="#f9a825" stroke-width="2" d="M865.25,-1215.5C865.25,-1215.5 1163.31,-1215.5 1163.31,-1215.5"/>
<polygon fill="#f9a825" stroke="#f9a825" stroke-width="2" points="1163.31,-1219 1173.31,-1215.5 1163.31,-1212 1163.31,-1219"/>
<text text-anchor="middle" x="995" y="-1218.5" font-family="Helvetica,sans-Serif" font-size="10.00"> &#160;contains (embedded) &#160;</text>
<text text-anchor="middle" x="1168.31" y="-1207.5" font-family="Helvetica,sans-Serif" font-size="10.00">M</text>
<text text-anchor="middle" x="868.75" y="-1207.5" font-family="Helvetica,sans-Serif" font-size="10.00">1</text>
</g>
<!-- Orders&#45;&gt;Tracking -->
<g id="edge8" class="edge">
<title>Orders&#45;&gt;Tracking</title>
<path fill="none" stroke="#388e3c" stroke-width="2" d="M865.25,-1404.5C865.25,-1404.5 1122.27,-1404.5 1122.27,-1404.5"/>
<polygon fill="#388e3c" stroke="#388e3c" stroke-width="2" points="1122.27,-1408 1132.27,-1404.5 1122.27,-1401 1122.27,-1408"/>
<text text-anchor="middle" x="995" y="-1399.5" font-family="Helvetica,sans-Serif" font-size="10.00"> &#160;tracked by &#160;</text>
<text text-anchor="middle" x="1122.77" y="-1396.5" font-family="Helvetica,sans-Serif" font-size="10.00">0..1</text>
<text text-anchor="middle" x="868.75" y="-1396.5" font-family="Helvetica,sans-Serif" font-size="10.00">1</text>
</g>
<!-- Orders&#45;&gt;SupportTickets -->
<g id="edge9" class="edge">
<title>Orders&#45;&gt;SupportTickets</title>
<path fill="none" stroke="#388e3c" stroke-width="2" d="M859,-997.72C859,-966.39 859,-944.5 859,-944.5 859,-944.5 1114.9,-944.5 1114.9,-944.5"/>
<polygon fill="#388e3c" stroke="#388e3c" stroke-width="2" points="1114.9,-948 1124.9,-944.5 1114.9,-941 1114.9,-948"/>
<text text-anchor="middle" x="995" y="-968.5" font-family="Helvetica,sans-Serif" font-size="10.00"> &#160;ticket for &#160;</text>
<text text-anchor="middle" x="1119.9" y="-936.5" font-family="Helvetica,sans-Serif" font-size="10.00">M</text>
<text text-anchor="middle" x="855.5" y="-989.72" font-family="Helvetica,sans-Serif" font-size="10.00">1</text>
</g>
</g>
</svg>
